
        <svg xmlns="http://www.w3.org/2000/svg" xmlns:xlink="http://www.w3.org/1999/xlink" version="1.1" width="3009.049773755656" 
        height="3180.995475113122" viewBox="0 0 3009.049773755656 3180.995475113122">
			
			<g transform="scale(9.049773755656108) translate(10, 10)">
				<defs id="SvgjsDefs12329"></defs><g id="SvgjsG12330" featureKey="rootContainer" transform="matrix(6.25,0,0,6.25,0.31249597668647766,19)" fill="#ffffff"><path xmlns="http://www.w3.org/2000/svg" d="M24.95 0a25 25 0 1 0 25 25 25 25 0 0 0-25-25zm0 46.91a22 22 0 1 1 22-22 22 22 0 0 1-22 21.99z"></path><path xmlns="http://www.w3.org/2000/svg" d="M24.95 3.65a21.3 21.3 0 1 0 21.3 21.3 21.33 21.33 0 0 0-21.3-21.3z"></path></g><g id="SvgjsG12331" featureKey="symbolFeature-0" transform="matrix(1.7817539865802954,0,0,1.7817539865802954,726.696632023867,-414.93801270920716)" fill="#111111"><path xmlns="http://www.w3.org/2000/svg" d="M-275,299.4c-2.3,0.9-4.9,0.5-7.5-1.5c-2.7-2-6.4-4.5-9.1-5.8c-7.8-3.8-15.6-5.9-24.7-5.9  c-1.9,0-4.1,0.1-6.7,1.6c-2.5,1.4-7.2,4.3-9.2,4.5c-2.4,0.2-7.4,0.1-14.6,0.3c-3.4,0.1-7.4,0.7-10.9,2.6c-4.2,2.2-7.2,5.4-7.2,5.4  l-0.3,0.9c0,0,3-2.9,7.2-5.1c3.5-1.9,6.6-2.8,10-2.9c7.2-0.2,12.2-0.1,14.6-0.1c1.9,0,6.6-3,9.2-4.4c2.6-1.4,4.7-1.6,6.6-1.5  c10.3,0.3,18.5,2.8,25,5.7c2.8,1.2,6.7,3.6,9.4,5.5c2.3,1.6,5.1,2,7.2,1.2"></path><path xmlns="http://www.w3.org/2000/svg" d="M-348.4,296.2c-3.3,0-5.9,2.6-5.9,5.9c0,3.3,2.6,5.9,5.9,5.9c3.3,0,5.9-2.6,5.9-5.9  C-342.5,298.8-345.2,296.2-348.4,296.2z M-348.2,307c-2.6,0-4.7-2.1-4.7-4.7c0-2.6,2.1-4.7,4.7-4.7c2.6,0,4.7,2.1,4.7,4.7  C-343.5,304.9-345.6,307-348.2,307z M-348.2,306.5c-2.4,0-4.3-1.9-4.3-4.3c0-2.4,1.9-4.3,4.3-4.3c2.4,0,4.3,1.9,4.3,4.3  C-344,304.6-345.9,306.5-348.2,306.5z"></path><path xmlns="http://www.w3.org/2000/svg" d="M-304.4,296.2c-3.3,0-5.9,2.6-5.9,5.9c0,3.3,2.6,5.9,5.9,5.9s5.9-2.6,5.9-5.9  C-298.5,298.8-301.1,296.2-304.4,296.2z M-304.6,306.8c-2.6,0-4.7-2.1-4.7-4.7c0-2.6,2.1-4.7,4.7-4.7c2.6,0,4.7,2.1,4.7,4.7  C-299.9,304.7-302,306.8-304.6,306.8z M-304.6,306.4c-2.4,0-4.3-1.9-4.3-4.3c0-2.4,1.9-4.3,4.3-4.3c2.4,0,4.3,1.9,4.3,4.3  C-300.4,304.5-302.3,306.4-304.6,306.4z"></path><path xmlns="http://www.w3.org/2000/svg" d="M-342.5,304.9c0,0,7.6-0.1,16-0.2c8.4-0.1,16.2-0.7,16.2-0.7l-0.9-1.4c0,0-8.2,0.7-15.2,0.9  c-7,0.2-15.1,0.4-15.1,0.4L-342.5,304.9z"></path><path xmlns="http://www.w3.org/2000/svg" d="M-297.3,301.6c0,0,4-0.9,7-2.6c1.2-0.7,2.6-1.8,2.6-1.8l-2-1.1c0,0-0.9,0.8-2.1,1.5  c-3.4,1.9-6.3,2.7-6.3,2.7L-297.3,301.6z"></path><path xmlns="http://www.w3.org/2000/svg" d="M-355.6,304.9l1-0.8c0,0-2.9,0.1-5.2,0c-2.3-0.1-3.8-0.4-3.8-0.4l-0.6,0.4c0,0,2.1,0.5,4.3,0.7  C-357.6,304.9-355.6,304.9-355.6,304.9z"></path><path xmlns="http://www.w3.org/2000/svg" d="M-290.7,295.5c0,0-4-2-9.3-2.7c-8-1-12,2.4-12,2.4l-1,1.4c0,0,4.6-4.1,12.3-2.7c5,0.9,8.5,2.6,8.5,2.6  s0.5-0.3,0.8-0.5C-291.1,295.8-290.7,295.5-290.7,295.5z"></path><path xmlns="http://www.w3.org/2000/svg" d="M-313,295.3c0,0-3.8,0.2-9.7,0.3c-5.8,0-12.7-0.2-21-0.7c-8.6-0.5-13.1,2.7-13.1,2.7l-0.8,0.7  c0,0,4.9-3.4,13.1-2.8c8.3,0.6,15.1,1.4,20.9,1.4c5.8,0,9.6-0.2,9.6-0.2L-313,295.3z"></path><path xmlns="http://www.w3.org/2000/svg" d="M-361.9,300.9c0.4-0.8,3.1-3.6,4-4.3c0.9-0.6,0.3,1.1-0.3,2.1c-0.6,1.1-1.7,2.1-2.7,2.4  C-361.9,301.4-362.1,301.4-361.9,300.9z"></path></g><g id="SvgjsG12332" featureKey="nameFeature-0" transform="matrix(1.2411370183186832,0,0,1.2411370183186832,54.9361717363883,139.81591274921905)" fill="#111111"><path d="M0.85714 17.714 l0 -6.2857 l24.286 0 l0 6.2857 l-8.4571 0 l0 22.286 l-7.4286 0 l0 -22.286 l-8.4 0 z M28.8571 40 l0 -24.286 l4.2857 -4.2857 l16.571 0 l4.2857 4.2857 l0 24.286 l-7.4286 0 l0 -8 l-10.286 0 l0 8 l-7.4286 0 z M36.286 25.714 l10.286 0 l0 -8 l-10.286 0 l0 8 z M58.85714285714286 40 l0 -3.4286 l7.8857 -10.857 l-7.8857 -10.857 l0 -3.4286 l6.5714 0 l6.2857 9.1429 l6.2857 -9.1429 l6.5714 0 l0 3.4286 l-7.8857 10.857 l7.8857 10.857 l0 3.4286 l-6.5714 0 l-6.2857 -9.1429 l-6.2857 9.1429 l-6.5714 0 z M88.57142857142857 40 l0 -5.7143 l2.2857 0 l0 -17.143 l-2.2857 0 l0 -5.7143 l12 0 l0 5.7143 l-2.2857 0 l0 17.143 l2.2857 0 l0 5.7143 l-12 0 z M123.42842857142857 17.714 l-10.571 0 l0 16 l10.857 0 l0 -4.8571 l-6.5714 0 l0 -6.2857 l14 0 l0 13.143 l-4.2857 4.2857 l-17.143 0 l-4.2857 -4.2857 l0 -20 l4.2857 -4.2857 l17.143 0 l4.2857 4.2857 l0 4.2857 l-5.4286 0 z M157.714 11.428999999999998 l4.2857 4.2857 l0 20 l-4.2857 4.2857 l-16.571 0 l-4.2857 -4.2857 l0 -20 l4.2857 -4.2857 l16.571 0 z M154.571 33.7143 l0 -16 l-10.286 0 l0 16 l10.286 0 z"></path></g><g id="SvgjsG12333" featureKey="sloganFeature-0" transform="matrix(0.5800869695095301,0,0,0.5800869695095301,78.01385281569065,203.61229173294308)" fill="#111111"><path d="M15.78 6 c0.18 0 0.3 0.12 0.3 0.3 l0 13.4 c0 0.18 -0.12 0.3 -0.3 0.3 l-1.64 0 c-0.18 0 -0.3 -0.12 -0.3 -0.3 l0 -9.22 l-3.84 9.29 c-0.06 0.16 -0.19 0.23 -0.35 0.23 l-1.54 0 c-0.16 0 -0.29 -0.07 -0.35 -0.23 l-3.82 -9.26 l0 9.19 c0 0.18 -0.12 0.3 -0.3 0.3 l-1.64 0 c-0.18 0 -0.3 -0.12 -0.3 -0.3 l0 -13.4 c0 -0.18 0.12 -0.3 0.3 -0.3 l1.96 0 c0.16 0 0.3 0.06 0.36 0.2 l4.57 11.25 l4.55 -11.25 c0.06 -0.14 0.2 -0.2 0.36 -0.2 l1.98 0 z M29.8775 20.26 c-3.96 0 -7.18 -3.2 -7.18 -7.2 c0 -4.02 3.22 -7.22 7.18 -7.22 c3.95 0 7.18 3.2 7.18 7.22 c0 4 -3.23 7.2 -7.18 7.2 z M29.8775 18.12 c2.77 0 4.95 -2.23 4.95 -5.06 c0 -2.85 -2.18 -5.08 -4.95 -5.08 s-4.96 2.23 -4.96 5.08 c0 2.83 2.19 5.06 4.96 5.06 z M51.305 14.7 l2.61 4.95 c0.11 0.21 0.01 0.35 -0.22 0.35 l-1.67 0 c-0.16 0 -0.27 -0.07 -0.35 -0.23 l-2.48 -4.8 l-0.27 0 l-3.01 0 l0 4.73 c0 0.18 -0.12 0.3 -0.3 0.3 l-1.64 0 c-0.18 0 -0.3 -0.12 -0.3 -0.3 l0 -13.4 c0 -0.18 0.12 -0.3 0.3 -0.3 l4.95 0 c3.89 0 5.23 1.57 5.23 4.48 c0 2.22 -0.77 3.66 -2.85 4.22 z M45.915 8.01 l0 4.95 l3.17 0 c1.78 0 2.91 -0.46 2.91 -2.48 c0 -2.01 -1.13 -2.47 -2.91 -2.47 l-3.17 0 z M69.3825 17.990000000000002 c0.18 0 0.3 0.12 0.3 0.3 l0 1.41 c0 0.18 -0.12 0.3 -0.3 0.3 l-8.61 0 c-0.18 0 -0.3 -0.12 -0.3 -0.3 l0 -13.4 c0 -0.18 0.12 -0.3 0.3 -0.3 l8.59 0 c0.18 0 0.3 0.12 0.3 0.3 l0 1.41 c0 0.18 -0.12 0.3 -0.3 0.3 l-6.65 0 l0 3.75 l6.13 0 c0.18 0 0.3 0.12 0.3 0.3 l0 1.41 c0 0.18 -0.12 0.3 -0.3 0.3 l-6.13 0 l0 4.22 l6.67 0 z M97.62750000000001 6 c0.18 0 0.3 0.12 0.3 0.3 l0 1.41 c0 0.18 -0.12 0.3 -0.3 0.3 l-4.03 0 l0 11.69 c0 0.18 -0.12 0.3 -0.3 0.3 l-1.65 0 c-0.18 0 -0.3 -0.12 -0.3 -0.3 l0 -11.69 l-4.03 0 c-0.18 0 -0.3 -0.12 -0.3 -0.3 l0 -1.41 c0 -0.18 0.12 -0.3 0.3 -0.3 l10.31 0 z M114.995 6 c0.18 0 0.3 0.12 0.3 0.3 l0 13.4 c0 0.18 -0.12 0.3 -0.3 0.3 l-1.65 0 c-0.18 0 -0.3 -0.12 -0.3 -0.3 l0 -5.81 l-6.61 0 l0 5.81 c0 0.18 -0.12 0.3 -0.3 0.3 l-1.64 0 c-0.18 0 -0.3 -0.12 -0.3 -0.3 l0 -13.4 c0 -0.18 0.12 -0.3 0.3 -0.3 l1.64 0 c0.18 0 0.3 0.12 0.3 0.3 l0 5.58 l6.61 0 l0 -5.58 c0 -0.18 0.12 -0.3 0.3 -0.3 l1.65 0 z M133.7525 19.66 c0.07 0.2 -0.02 0.34 -0.24 0.34 l-1.69 0 c-0.16 0 -0.28 -0.06 -0.34 -0.24 l-0.89 -2.49 l-6.04 0 l-0.89 2.49 c-0.07 0.18 -0.18 0.24 -0.34 0.24 l-1.69 0 c-0.22 0 -0.31 -0.14 -0.24 -0.34 l5.03 -13.42 c0.06 -0.16 0.19 -0.24 0.35 -0.24 l1.57 0 c0.16 0 0.31 0.08 0.37 0.24 z M125.25250000000001 15.33 l4.64 0 l-2.32 -6.47 z M150.4 6 c0.18 0 0.3 0.12 0.3 0.3 l0 13.4 c0 0.17 -0.11 0.29 -0.27 0.3 l-1.99 0 c-0.16 0 -0.28 -0.06 -0.36 -0.2 l-5.99 -10.38 l0 10.28 c0 0.18 -0.12 0.3 -0.3 0.3 l-1.64 0 c-0.18 0 -0.3 -0.12 -0.3 -0.3 l0 -13.4 c0 -0.17 0.11 -0.29 0.27 -0.3 l1.99 0 c0.16 0 0.28 0.06 0.36 0.2 l5.99 10.38 l0 -10.28 c0 -0.18 0.12 -0.3 0.3 -0.3 l1.64 0 z M180.575 19.66 c0.07 0.2 -0.02 0.34 -0.24 0.34 l-1.69 0 c-0.16 0 -0.28 -0.06 -0.34 -0.24 l-0.89 -2.49 l-6.04 0 l-0.89 2.49 c-0.07 0.18 -0.18 0.24 -0.34 0.24 l-1.69 0 c-0.22 0 -0.31 -0.14 -0.24 -0.34 l5.03 -13.42 c0.06 -0.16 0.19 -0.24 0.35 -0.24 l1.57 0 c0.16 0 0.31 0.08 0.37 0.24 z M172.075 15.33 l4.64 0 l-2.32 -6.47 z M205.72 14.7 l2.61 4.95 c0.11 0.21 0.01 0.35 -0.22 0.35 l-1.67 0 c-0.16 0 -0.27 -0.07 -0.35 -0.23 l-2.48 -4.8 l-0.27 0 l-3.01 0 l0 4.73 c0 0.18 -0.12 0.3 -0.3 0.3 l-1.64 0 c-0.18 0 -0.3 -0.12 -0.3 -0.3 l0 -13.4 c0 -0.18 0.12 -0.3 0.3 -0.3 l4.95 0 c3.89 0 5.23 1.57 5.23 4.48 c0 2.22 -0.77 3.66 -2.85 4.22 z M200.32999999999998 8.01 l0 4.95 l3.17 0 c1.78 0 2.91 -0.46 2.91 -2.48 c0 -2.01 -1.13 -2.47 -2.91 -2.47 l-3.17 0 z M224.3475 8.01 l-3.58 0 l0 9.98 l3.58 0 c0.18 0 0.3 0.12 0.3 0.3 l0 1.41 c0 0.18 -0.12 0.3 -0.3 0.3 l-9.41 0 c-0.18 0 -0.3 -0.12 -0.3 -0.3 l0 -1.41 c0 -0.18 0.12 -0.3 0.3 -0.3 l3.58 0 l0 -9.98 l-3.58 0 c-0.18 0 -0.3 -0.12 -0.3 -0.3 l0 -1.41 c0 -0.18 0.12 -0.3 0.3 -0.3 l9.41 0 c0.18 0 0.3 0.12 0.3 0.3 l0 1.41 c0 0.18 -0.12 0.3 -0.3 0.3 z M235.315 6 c4.83 0 7.33 3.07 7.33 7 s-2.5 7 -7.33 7 l-3.6 0 c-0.18 0 -0.3 -0.12 -0.3 -0.3 l0 -13.4 c0 -0.18 0.12 -0.3 0.3 -0.3 l3.6 0 z M235.315 17.990000000000002 c3.38 0 5.06 -1.87 5.06 -4.99 s-1.68 -4.99 -5.06 -4.99 l-1.66 0 l0 9.98 l1.66 0 z M257.8225 17.990000000000002 c0.18 0 0.3 0.12 0.3 0.3 l0 1.41 c0 0.18 -0.12 0.3 -0.3 0.3 l-8.61 0 c-0.18 0 -0.3 -0.12 -0.3 -0.3 l0 -13.4 c0 -0.18 0.12 -0.3 0.3 -0.3 l8.59 0 c0.18 0 0.3 0.12 0.3 0.3 l0 1.41 c0 0.18 -0.12 0.3 -0.3 0.3 l-6.65 0 l0 3.75 l6.13 0 c0.18 0 0.3 0.12 0.3 0.3 l0 1.41 c0 0.18 -0.12 0.3 -0.3 0.3 l-6.13 0 l0 4.22 l6.67 0 z M266.05 20.26 c-0.89 0 -1.61 -0.72 -1.61 -1.61 c0 -0.9 0.72 -1.63 1.61 -1.63 c0.9 0 1.62 0.73 1.62 1.63 c0 0.89 -0.72 1.61 -1.62 1.61 z"></path></g>
			</g>
		</svg>
	